# xmcd
#
# Track frame offsets: 
#        150
#        12185
#        17940
#        21145
#        31090
#        41090
#        45377
#        57620
#        59690
#        74032
#        88962
#        100757
#        116465
#        130132
#        135120
#        151485
#        158227
#        173417
#        288517
#        312082
#
# Disc length: 4404 seconds
#
# Revision: 0
# Processed by: cddbd v1.5.2PL0 Copyright (c) Steve Scherf et al.
# Submitted via: ExactAudioCopy v0.95b3
#
DISCID=0e113214
DTITLE=The Beatles  - Mythology - Disc 05 1965  FLAC
DYEAR=1900
DGENRE=
TTITLE0=That Means A Lot - take 1
TTITLE1=That Means A Lot - take 20
TTITLE2=That Means A Lot - take unnumbered
TTITLE3=That Means A Lot - take 21
TTITLE4=That Means A Lot - takes 22-24
TTITLE5=That Means A Lot - test
TTITLE6=Yes It Is
TTITLE7=New Musical Express Intro
TTITLE8=I Feel Fine
TTITLE9=She's a Woman
TTITLE10=Baby's In Black
TTITLE11=Ticket to Ride
TTITLE12=Long Tall Sally
TTITLE13=New Musical Express Outro
TTITLE14=Help
TTITLE15=Peter Sellers
TTITLE16=British Info Service Interview
TTITLE17=The Beatles Abroad
TTITLE18=John Lennon
TTITLE19=George Harrison
EXTD=
EXTT0=
EXTT1=
EXTT2=
EXTT3=
EXTT4=
EXTT5=
EXTT6=
EXTT7=
EXTT8=
EXTT9=
EXTT10=
EXTT11=
EXTT12=
EXTT13=
EXTT14=
EXTT15=
EXTT16=
EXTT17=
EXTT18=
EXTT19=
PLAYORDER=
